<svg width="30" height="30" viewBox="0 0 30 30" fill="none" xmlns="http://www.w3.org/2000/svg">
<mask id="path-1-inside-1_1115_304" fill="white">
<path d="M13.2539 23.4C14.2627 19.725 17.7898 17.1 21.8527 17.534C25.7207 17.947 28.7957 21.23 28.9905 25.136C29.0392 26.165 28.9 27.152 28.6009 28.069C28.42 28.629 27.8774 29 27.286 29H6.56696C3.05512 29 0.42123 25.7667 1.10996 22.3017L5.34394 1H13.6922L16.475 5.9L10.5129 10.191L8.82239 8"/>
</mask>
<path d="M13.2539 23.4C14.2627 19.725 17.7898 17.1 21.8527 17.534C25.7207 17.947 28.7957 21.23 28.9905 25.136C29.0392 26.165 28.9 27.152 28.6009 28.069C28.42 28.629 27.8774 29 27.286 29H6.56696C3.05512 29 0.42123 25.7667 1.10996 22.3017L5.34394 1H13.6922L16.475 5.9L10.5129 10.191L8.82239 8" fill="black"/>
<path d="M21.8527 17.534L21.7996 18.0312L21.7996 18.0312L21.8527 17.534ZM28.9905 25.136L29.4899 25.1124L29.4898 25.1111L28.9905 25.136ZM28.6009 28.069L28.1255 27.9139L28.1251 27.9153L28.6009 28.069ZM1.10996 22.3017L1.60037 22.3992L1.60037 22.3992L1.10996 22.3017ZM5.34394 1V0.5H4.93354L4.85353 0.902526L5.34394 1ZM13.6922 1L14.127 0.753084L13.9833 0.5H13.6922V1ZM16.475 5.9L16.7671 6.30582L17.1315 6.04353L16.9098 5.65308L16.475 5.9ZM10.5129 10.191L10.1171 10.4964L10.4125 10.8793L10.805 10.5968L10.5129 10.191ZM13.7361 23.5323C14.6829 20.083 17.9914 17.6244 21.7996 18.0312L21.9058 17.0368C17.5883 16.5756 13.8425 19.367 12.7718 23.2676L13.7361 23.5323ZM21.7996 18.0312C25.4198 18.4177 28.3084 21.4976 28.4911 25.1609L29.4898 25.1111C29.283 20.9624 26.0216 17.4763 21.9058 17.0368L21.7996 18.0312ZM28.491 25.1596C28.5369 26.1281 28.4059 27.0545 28.1255 27.9139L29.0762 28.2241C29.3942 27.2495 29.5415 26.2019 29.4899 25.1124L28.491 25.1596ZM28.1251 27.9153C28.0153 28.2551 27.6753 28.5 27.286 28.5V29.5C28.0794 29.5 28.8247 29.0029 29.0767 28.2227L28.1251 27.9153ZM27.286 28.5H6.56696V29.5H27.286V28.5ZM6.56696 28.5C3.37425 28.5 0.972348 25.5587 1.60037 22.3992L0.619558 22.2042C-0.129887 25.9747 2.73598 29.5 6.56696 29.5V28.5ZM1.60037 22.3992L5.83435 1.09747L4.85353 0.902526L0.619558 22.2042L1.60037 22.3992ZM5.34394 1.5H13.6922V0.5H5.34394V1.5ZM13.2574 1.24692L16.0402 6.14692L16.9098 5.65308L14.127 0.753084L13.2574 1.24692ZM16.1829 5.49418L10.2208 9.78518L10.805 10.5968L16.7671 6.30582L16.1829 5.49418ZM10.9088 9.88556L9.21826 7.69456L8.42653 8.30544L10.1171 10.4964L10.9088 9.88556Z" fill="black" mask="url(#path-1-inside-1_1115_304)"/>
<path d="M13.2539 23.4C14.2627 19.725 17.7898 17.1 21.8527 17.534C25.7207 17.947 28.7957 21.23 28.9905 25.136C29.0392 26.165 28.9 27.152 28.6009 28.069C28.42 28.629 27.8774 29 27.286 29H6.56696C3.05512 29 0.42123 25.7667 1.10996 22.3017L5.34394 1H13.6922L16.475 5.9L10.5129 10.191L8.82239 8M10.5199 10.191L13.6922 22Z" fill="black"/>
<path d="M13.2539 23.4C14.2627 19.725 17.7898 17.1 21.8527 17.534C25.7207 17.947 28.7957 21.23 28.9905 25.136C29.0392 26.165 28.9 27.152 28.6009 28.069C28.42 28.629 27.8774 29 27.286 29H6.56696C3.05512 29 0.42123 25.7667 1.10996 22.3017L5.34394 1H13.6922L16.475 5.9L10.5129 10.191L8.82239 8M10.5199 10.191L13.6922 22" stroke="black" stroke-width="2" stroke-miterlimit="2" stroke-linecap="round" stroke-linejoin="round"/>
</svg>
