<svg width="64" height="64" viewBox="0 0 64 64" fill="none" xmlns="http://www.w3.org/2000/svg">
<rect width="64" height="64" rx="14" fill="#F19B9B"/>
<path d="M31.4059 49.8285V17.7371M31.4059 49.8285L28.248 46.6707C26.4648 44.8875 24.0474 43.8857 21.5256 43.8857H13.5753C12.2624 43.8857 11.2002 42.8214 11.2002 41.5085V16.5485C11.2002 15.2357 12.2645 14.1714 13.5773 14.1714H22.713C25.2349 14.1714 27.6534 15.1732 29.4366 16.9564L31.4059 18.9257L33.3752 16.9564C35.1584 15.1732 37.5769 14.1714 40.0988 14.1714H50.423C51.7359 14.1714 52.8002 15.2357 52.8002 16.5485V41.5085C52.8002 42.8214 51.7359 43.8857 50.423 43.8857H41.2873C38.7655 43.8857 36.347 44.8875 34.5638 46.6707L31.4059 49.8285Z" stroke="#FFF8F8" stroke-width="4" stroke-linecap="round" stroke-linejoin="round"/>
</svg>
