<svg width="97" height="96" viewBox="0 0 97 96" fill="none" xmlns="http://www.w3.org/2000/svg">
<path d="M60.5003 9.60002V24C60.5003 26.651 62.6494 28.8 65.3003 28.8H79.7003M34.1003 28.8H43.7003M34.1003 43.2H62.9003M34.1003 57.6H62.9003M72.5003 16.8C70.364 14.8886 68.1472 12.6215 66.7477 11.1491C65.8165 10.1694 64.5298 9.60002 63.178 9.60002H26.8992C21.5973 9.60002 17.2992 13.8981 17.2992 19.2L17.2988 76.7997C17.2988 82.1017 21.5968 86.3998 26.8988 86.3998L70.099 86.4C75.4008 86.4 79.6989 82.1021 79.699 76.8002L79.7003 25.9114C79.7003 24.684 79.2321 23.5042 78.3803 22.6205C76.8051 20.9866 74.1746 18.2981 72.5003 16.8Z" stroke="white" stroke-width="6" stroke-linecap="round" stroke-linejoin="round"/>
</svg>
