<svg width="28" height="29" viewBox="0 0 28 29" fill="none" xmlns="http://www.w3.org/2000/svg">
<rect y="0.5" width="28" height="28" rx="14" fill="black"/>
<g clip-path="url(#clip0_1102_3168)">
<path d="M17.1852 11.5371C17.0377 11.1187 16.7685 10.7541 16.4121 10.4901C16.0556 10.226 15.6283 10.0747 15.1852 10.0556H12.2222C11.6329 10.0556 11.0676 10.2897 10.6509 10.7065C10.2341 11.1232 10 11.6884 10 12.2778C10 12.8672 10.2341 13.4324 10.6509 13.8492C11.0676 14.2659 11.6329 14.5 12.2222 14.5H15.1852C15.7746 14.5 16.3398 14.7342 16.7565 15.1509C17.1733 15.5677 17.4074 16.1329 17.4074 16.7223C17.4074 17.3116 17.1733 17.8769 16.7565 18.2936C16.3398 18.7104 15.7746 18.9445 15.1852 18.9445H12.2222C11.7791 18.9254 11.3518 18.774 10.9954 18.51C10.6389 18.246 10.3697 17.8813 10.2222 17.463M13.7037 7.83337V10.0556M13.7037 18.9445V21.1667" stroke="#FFF8F8" stroke-width="2" stroke-linecap="round" stroke-linejoin="round"/>
</g>
<defs>
<clipPath id="clip0_1102_3168">
<rect width="16" height="16" fill="white" transform="translate(6 6.5)"/>
</clipPath>
</defs>
</svg>
