<svg width="43" height="42" viewBox="0 0 43 42" fill="none" xmlns="http://www.w3.org/2000/svg">
<path d="M21.5 33.25C21.9286 33.2501 22.3424 33.4074 22.6627 33.6923C22.983 33.9771 23.1876 34.3696 23.2378 34.7952L23.25 35V36.75C23.2495 37.196 23.0787 37.6251 22.7725 37.9494C22.4663 38.2737 22.0478 38.4689 21.6026 38.495C21.1573 38.5212 20.7189 38.3763 20.3768 38.09C20.0348 37.8038 19.8149 37.3977 19.7623 36.9547L19.75 36.75V35C19.75 34.5359 19.9344 34.0907 20.2626 33.7626C20.5908 33.4344 21.0359 33.25 21.5 33.25ZM32.5478 29.5925L32.7123 29.7377L33.9373 30.9627C34.2511 31.2777 34.4333 31.7003 34.4469 32.1447C34.4605 32.5891 34.3044 33.022 34.0103 33.3555C33.7163 33.689 33.3063 33.898 32.8637 33.9402C32.4211 33.9824 31.979 33.8545 31.6273 33.5825L31.4628 33.4372L30.2378 32.2122C29.9358 31.9108 29.7543 31.5094 29.7276 31.0835C29.7008 30.6576 29.8306 30.2367 30.0924 29.8998C30.3543 29.5629 30.7302 29.3332 31.1495 29.2541C31.5688 29.175 32.0026 29.2517 32.3693 29.47L32.5478 29.5925ZM12.7623 29.7377C13.0636 30.0391 13.2446 30.44 13.2713 30.8653C13.2981 31.2906 13.1687 31.711 12.9075 32.0477L12.7623 32.2122L11.5373 33.4372C11.2223 33.7511 10.7998 33.9333 10.3553 33.9469C9.91093 33.9605 9.47802 33.8044 9.14453 33.5103C8.81104 33.2163 8.60198 32.8063 8.55982 32.3637C8.51765 31.9211 8.64554 31.479 8.91751 31.1272L9.06276 30.9627L10.2878 29.7377C10.6159 29.4097 11.061 29.2254 11.525 29.2254C11.9891 29.2254 12.4341 29.4097 12.7623 29.7377ZM7.50001 19.25C7.94605 19.2505 8.37507 19.4213 8.69941 19.7275C9.02375 20.0337 9.21893 20.4522 9.24507 20.8974C9.27121 21.3427 9.12633 21.7812 8.84005 22.1232C8.55377 22.4652 8.14768 22.6851 7.70476 22.7377L7.50001 22.75H5.75001C5.30398 22.7495 4.87496 22.5787 4.55062 22.2725C4.22628 21.9663 4.0311 21.5478 4.00496 21.1026C3.97882 20.6573 4.12369 20.2188 4.40998 19.8768C4.69626 19.5347 5.10235 19.3149 5.54526 19.2622L5.75001 19.25H7.50001ZM37.25 19.25C37.6961 19.2505 38.1251 19.4213 38.4494 19.7275C38.7737 20.0337 38.9689 20.4522 38.9951 20.8974C39.0212 21.3427 38.8763 21.7812 38.5901 22.1232C38.3038 22.4652 37.8977 22.6851 37.4548 22.7377L37.25 22.75H35.5C35.054 22.7495 34.625 22.5787 34.3006 22.2725C33.9763 21.9663 33.7811 21.5478 33.755 21.1026C33.7288 20.6573 33.8737 20.2188 34.16 19.8768C34.4463 19.5347 34.8523 19.3149 35.2953 19.2622L35.5 19.25H37.25ZM11.3728 8.4175L11.5373 8.56275L12.7623 9.78775C13.0761 10.1027 13.2583 10.5253 13.2719 10.9697C13.2855 11.4141 13.1294 11.847 12.8353 12.1805C12.5413 12.514 12.1313 12.723 11.6887 12.7652C11.2461 12.8074 10.804 12.6795 10.4523 12.4075L10.2878 12.2622L9.06276 11.0372C8.76192 10.7357 8.5814 10.3348 8.55503 9.90961C8.52866 9.48446 8.65827 9.06429 8.91955 8.72787C9.18083 8.39145 9.55584 8.16187 9.97428 8.08218C10.3927 8.0025 10.8259 8.07816 11.1925 8.295L11.3728 8.4175ZM33.9373 8.56275C34.2386 8.86409 34.4196 9.26501 34.4463 9.69031C34.4731 10.1156 34.3437 10.536 34.0825 10.8727L33.9373 11.0372L32.7123 12.2622C32.3973 12.5761 31.9748 12.7583 31.5303 12.7719C31.0859 12.7855 30.653 12.6294 30.3195 12.3353C29.986 12.0413 29.777 11.6313 29.7348 11.1887C29.6927 10.7461 29.8205 10.304 30.0925 9.95225L30.2378 9.78775L31.4628 8.56275C31.7909 8.23468 32.236 8.05037 32.7 8.05037C33.1641 8.05037 33.6091 8.23468 33.9373 8.56275ZM21.5 3.5C21.9286 3.50006 22.3424 3.65742 22.6627 3.94225C22.983 4.22708 23.1876 4.61956 23.2378 5.04525L23.25 5.25V7C23.2495 7.44604 23.0787 7.87506 22.7725 8.19939C22.4663 8.52373 22.0478 8.71891 21.6026 8.74505C21.1573 8.77119 20.7189 8.62632 20.3768 8.34004C20.0348 8.05375 19.8149 7.64767 19.7623 7.20475L19.75 7V5.25C19.75 4.78587 19.9344 4.34075 20.2626 4.01256C20.5908 3.68437 21.0359 3.5 21.5 3.5ZM21.5 12.25C23.2145 12.2499 24.8911 12.7535 26.3218 13.6981C27.7525 14.6428 28.8742 15.9869 29.5475 17.5636C30.2208 19.1403 30.4161 20.8801 30.1091 22.5668C29.8021 24.2535 29.0064 25.8129 27.8207 27.0512C26.6351 28.2896 25.1117 29.1524 23.4399 29.5324C21.7682 29.9124 20.0216 29.7929 18.4171 29.1887C16.8126 28.5846 15.421 27.5224 14.4151 26.1341C13.4091 24.7458 12.8332 23.0926 12.7588 21.3797L12.75 21L12.7588 20.6202C12.8566 18.3676 13.8203 16.2396 15.4489 14.6802C17.0775 13.1207 19.2452 12.2501 21.5 12.25Z" fill="black"/>
</svg>
